<?xml version="1.0" encoding="UTF-8" standalone="no"?>
<!-- Created with Inkscape (http://www.inkscape.org/) -->

<svg
   xmlns:dc="http://purl.org/dc/elements/1.1/"
   xmlns:cc="http://creativecommons.org/ns#"
   xmlns:rdf="http://www.w3.org/1999/02/22-rdf-syntax-ns#"
   xmlns:svg="http://www.w3.org/2000/svg"
   xmlns="http://www.w3.org/2000/svg"
   xmlns:sodipodi="http://sodipodi.sourceforge.net/DTD/sodipodi-0.dtd"
   xmlns:inkscape="http://www.inkscape.org/namespaces/inkscape"
   width="512mm"
   height="512mm"
   viewBox="0 0 1814.1732 1814.1732"
   id="svg12035"
   version="1.1"
   inkscape:version="0.91 r13725"
   sodipodi:docname="chat.svg">
  <defs
     id="defs12037">
    <clipPath
       clipPathUnits="userSpaceOnUse"
       id="clipPath4870">
      <path
         d="m 0,4629.055 3590.051,0 L 3590.051,0 0,0 0,4629.055 Z"
         id="path4872"
         inkscape:connector-curvature="0" />
    </clipPath>
    <clipPath
       clipPathUnits="userSpaceOnUse"
       id="clipPath4890">
      <path
         d="m 345.273,2725.925 0,-102.258 c 0,-39.537 32.045,-71.584 71.581,-71.584 l 0,0 c 39.536,0 71.581,32.047 71.581,71.584 l 0,0 0,102.258 c 0,39.535 -32.045,71.582 -71.581,71.582 l 0,0 c -39.536,0 -71.581,-32.047 -71.581,-71.582"
         id="path4892"
         inkscape:connector-curvature="0" />
    </clipPath>
    <clipPath
       clipPathUnits="userSpaceOnUse"
       id="clipPath4898">
      <path
         d="m 439.58,2699.84 51.364,0 0,-20.07 -51.364,0 0,20.07 z"
         id="path4900"
         inkscape:connector-curvature="0" />
    </clipPath>
    <clipPath
       clipPathUnits="userSpaceOnUse"
       id="clipPath4914">
      <path
         d="m 439.58,2666.93 51.364,0 0,-20.06 -51.364,0 0,20.06 z"
         id="path4916"
         inkscape:connector-curvature="0" />
    </clipPath>
    <clipPath
       clipPathUnits="userSpaceOnUse"
       id="clipPath4930">
      <path
         d="m 439.58,2634.03 51.364,0 0,-20.07 -51.364,0 0,20.07 z"
         id="path4932"
         inkscape:connector-curvature="0" />
    </clipPath>
    <clipPath
       clipPathUnits="userSpaceOnUse"
       id="clipPath4946">
      <path
         d="m 343.27,2699.84 51.365,0 0,-20.07 -51.365,0 0,20.07 z"
         id="path4948"
         inkscape:connector-curvature="0" />
    </clipPath>
    <clipPath
       clipPathUnits="userSpaceOnUse"
       id="clipPath4962">
      <path
         d="m 343.27,2666.93 51.365,0 0,-20.06 -51.365,0 0,20.06 z"
         id="path4964"
         inkscape:connector-curvature="0" />
    </clipPath>
    <clipPath
       clipPathUnits="userSpaceOnUse"
       id="clipPath4978">
      <path
         d="m 343.27,2634.03 51.365,0 0,-20.07 -51.365,0 0,20.07 z"
         id="path4980"
         inkscape:connector-curvature="0" />
    </clipPath>
    <clipPath
       clipPathUnits="userSpaceOnUse"
       id="clipPath4994">
      <path
         d="m 345.273,2725.925 0,-102.258 c 0,-39.537 32.045,-71.584 71.581,-71.584 l 0,0 c 39.536,0 71.581,32.047 71.581,71.584 l 0,0 0,102.258 c 0,39.535 -32.045,71.582 -71.581,71.582 l 0,0 c -39.536,0 -71.581,-32.047 -71.581,-71.582"
         id="path4996"
         inkscape:connector-curvature="0" />
    </clipPath>
    <clipPath
       clipPathUnits="userSpaceOnUse"
       id="clipPath5002">
      <path
         d="m 253.382,2879.61 208.669,0 0,-208.67 -208.669,0 0,208.67 z"
         id="path5004"
         inkscape:connector-curvature="0" />
    </clipPath>
    <clipPath
       clipPathUnits="userSpaceOnUse"
       id="clipPath5018">
      <path
         d="m 0,4629.055 3590.051,0 L 3590.051,0 0,0 0,4629.055 Z"
         id="path5020"
         inkscape:connector-curvature="0" />
    </clipPath>
    <clipPath
       clipPathUnits="userSpaceOnUse"
       id="clipPath5026">
      <path
         d="m 410.57,2791 17.913,0 0,-11.9 -17.913,0 0,11.9 z"
         id="path5028"
         inkscape:connector-curvature="0" />
    </clipPath>
    <clipPath
       clipPathUnits="userSpaceOnUse"
       id="clipPath5042">
      <path
         d="m 350.468,2786.98 55.586,0 0,-80.15 -55.586,0 0,80.15 z"
         id="path5044"
         inkscape:connector-curvature="0" />
    </clipPath>
    <clipPath
       clipPathUnits="userSpaceOnUse"
       id="clipPath5058">
      <path
         d="m 508.887,2613.647 c -9.311,-40.973 -48.244,-71.581 -92.034,-71.581 l 0,0 c -43.788,0 -82.721,30.608 -92.033,71.581 l 0,0 -20.451,0 c 9.027,-49.073 51.774,-87.021 102.259,-91.574 l 0,0 0,-20.911 -10.226,0 c -5.646,0 -10.226,-4.583 -10.226,-10.225 l 0,0 c 0,-5.652 4.58,-10.226 10.226,-10.226 l 0,0 40.904,0 c 5.647,0 10.225,4.574 10.225,10.226 l 0,0 c 0,5.642 -4.578,10.225 -10.225,10.225 l 0,0 -10.226,0 0,20.911 c 50.485,4.553 93.232,42.501 102.26,91.574 l 0,0 -20.453,0 z"
         id="path5060"
         inkscape:connector-curvature="0" />
    </clipPath>
    <clipPath
       clipPathUnits="userSpaceOnUse"
       id="clipPath5066">
      <path
         d="m 404.801,2528.35 40.664,0 0,-27.19 -40.664,0 0,27.19 z"
         id="path5068"
         inkscape:connector-curvature="0" />
    </clipPath>
    <clipPath
       clipPathUnits="userSpaceOnUse"
       id="clipPath5082">
      <path
         d="m 0,4629.055 3590.051,0 L 3590.051,0 0,0 0,4629.055 Z"
         id="path5084"
         inkscape:connector-curvature="0" />
    </clipPath>
    <clipPath
       clipPathUnits="userSpaceOnUse"
       id="clipPath5094">
      <path
         d="m 509.443,2616.847 c -0.656,-3.277 -1.694,-6.506 -2.782,-9.66 l 0,0 c -0.507,-1.471 -1.044,-2.931 -1.61,-4.381 l 0,0 c -0.222,-0.567 -0.454,-1.129 -0.68,-1.694 l 0,0 c -0.054,-0.125 -0.107,-0.25 -0.164,-0.375 l 0,0 c -1.639,-3.598 -3.368,-7.14 -5.315,-10.584 l 0,0 c -2.347,-4.151 -4.976,-8.102 -7.771,-11.963 l 0,0 c -0.149,-0.204 -0.251,-0.38 -0.324,-0.531 l 0,0 c -0.22,-0.236 -0.45,-0.46 -0.568,-0.605 l 0,0 c -0.824,-1.017 -1.666,-2.018 -2.527,-3.004 l 0,0 c -1.616,-1.849 -3.295,-3.641 -5.039,-5.37 l 0,0 c -1.997,-1.978 -4.075,-3.874 -6.232,-5.677 l 0,0 c -0.657,-0.55 -4.134,-3.152 -1.281,-1.075 l 0,0 c -1.09,-0.793 -2.166,-1.603 -3.276,-2.371 l 0,0 c -4.942,-3.421 -10.18,-6.219 -15.606,-8.779 l 0,0 c -0.154,-0.067 -0.284,-0.123 -0.393,-0.172 l 0,0 c -0.303,-0.122 -0.605,-0.247 -0.909,-0.366 l 0,0 c -0.572,-0.224 -1.146,-0.444 -1.722,-0.659 l 0,0 c -1.467,-0.545 -2.947,-1.057 -4.437,-1.535 l 0,0 c -3.268,-1.047 -6.587,-1.93 -9.94,-2.661 l 0,0 c -1.841,-0.402 -3.693,-0.758 -5.552,-1.068 l 0,0 c -0.747,-0.124 -1.497,-0.233 -2.248,-0.342 l 0,0 c -0.376,-0.043 -1.121,-0.135 -1.43,-0.169 l 0,0 c -3.939,-0.426 -7.891,-0.649 -11.851,-0.739 l 0,0 c -0.206,0 -0.405,-0.024 -0.606,-0.043 l 0,0 c -0.202,0.019 -0.402,0.039 -0.608,0.043 l 0,0 c -3.96,0.09 -7.911,0.313 -11.851,0.739 l 0,0 c -0.309,0.034 -1.054,0.126 -1.43,0.169 l 0,0 c -0.75,0.109 -1.501,0.218 -2.248,0.342 l 0,0 c -1.859,0.31 -3.711,0.666 -5.552,1.068 l 0,0 c -3.353,0.731 -6.672,1.614 -9.94,2.661 l 0,0 c -1.49,0.478 -2.969,0.99 -4.436,1.535 l 0,0 c -0.577,0.215 -1.151,0.435 -1.723,0.659 l 0,0 c -0.303,0.119 -0.606,0.244 -0.908,0.366 l 0,0 c -0.11,0.049 -0.241,0.105 -0.392,0.172 l 0,0 c -5.428,2.56 -10.666,5.358 -15.608,8.779 l 0,0 c -1.11,0.768 -2.185,1.578 -3.275,2.371 l 0,0 c 2.852,-2.077 -0.624,0.525 -1.282,1.075 l 0,0 c -2.157,1.803 -4.235,3.699 -6.232,5.677 l 0,0 c -1.743,1.729 -3.424,3.521 -5.039,5.37 l 0,0 c -0.861,0.986 -1.703,1.987 -2.527,3.004 l 0,0 c -0.117,0.145 -0.348,0.369 -0.568,0.605 l 0,0 c -0.072,0.151 -0.175,0.327 -0.324,0.531 l 0,0 c -2.795,3.861 -5.424,7.812 -7.771,11.963 l 0,0 c -1.947,3.444 -3.675,6.986 -5.315,10.584 l 0,0 c -0.055,0.125 -0.11,0.25 -0.163,0.375 l 0,0 c -0.227,0.565 -0.459,1.127 -0.68,1.694 l 0,0 c -0.566,1.45 -1.105,2.91 -1.611,4.381 l 0,0 c -1.088,3.154 -2.126,6.383 -2.78,9.66 l 0,0 c -1.275,6.379 -8.863,10.043 -14.81,8.409 l 0,0 c -6.648,-1.827 -9.686,-8.411 -8.408,-14.809 l 0,0 c 2.141,-10.719 6.906,-21.345 12.099,-30.865 l 0,0 c 11.212,-20.552 28.499,-38.297 49.722,-48.475 l 0,0 c 16.649,-7.984 34.628,-11.701 53.052,-12.117 l 0,0 c 0.203,0 0.406,0.01 0.608,0.021 l 0,0 c 0.202,-0.011 0.403,-0.025 0.606,-0.021 l 0,0 c 18.424,0.416 36.403,4.133 53.052,12.117 l 0,0 c 21.223,10.178 38.511,27.923 49.723,48.475 l 0,0 c 5.193,9.52 9.958,20.146 12.099,30.865 l 0,0 c 1.277,6.398 -1.761,12.982 -8.409,14.809 l 0,0 c -0.954,0.262 -1.951,0.388 -2.957,0.388 l 0,0 c -5.263,0 -10.782,-3.442 -11.851,-8.797"
         id="path5096"
         inkscape:connector-curvature="0" />
    </clipPath>
    <clipPath
       clipPathUnits="userSpaceOnUse"
       id="clipPath5102">
      <path
         d="m 353.901,2620.38 179.045,0 0,-109.15 -179.045,0 0,109.15 z"
         id="path5104"
         inkscape:connector-curvature="0" />
    </clipPath>
    <clipPath
       clipPathUnits="userSpaceOnUse"
       id="clipPath2734">
      <path
         d="m 0,4629.055 3590.051,0 L 3590.051,0 0,0 0,4629.055 Z"
         id="path2736"
         inkscape:connector-curvature="0" />
    </clipPath>
    <clipPath
       clipPathUnits="userSpaceOnUse"
       id="clipPath2750">
      <path
         d="m 1537.76,2750.75 14.72,0 0,-14.71 -14.72,0 0,14.71 z"
         id="path2752"
         inkscape:connector-curvature="0" />
    </clipPath>
    <clipPath
       clipPathUnits="userSpaceOnUse"
       id="clipPath2766">
      <path
         d="m 1391.85,2751.33 21.14,0 0,-23.36 -21.14,0 0,23.36 z"
         id="path2768"
         inkscape:connector-curvature="0" />
    </clipPath>
    <clipPath
       clipPathUnits="userSpaceOnUse"
       id="clipPath2794">
      <path
         d="m 1412.992,2731.245 0,-166.86 264.205,-0.046 0,166.906 -264.205,0 z"
         id="path2796"
         inkscape:connector-curvature="0" />
    </clipPath>
    <clipPath
       clipPathUnits="userSpaceOnUse"
       id="clipPath2802">
      <path
         d="m 1332.89,2815.21 241.39,0 0,-241.4 -241.39,0 0,241.4 z"
         id="path2804"
         inkscape:connector-curvature="0" />
    </clipPath>
    <clipPath
       clipPathUnits="userSpaceOnUse"
       id="clipPath2818">
      <path
         d="m 1354.857,2548.527 c -7.455,0 -13.554,-6.099 -13.554,-13.554 l 0,0 c 0,-7.454 6.099,-13.554 13.554,-13.554 l 0,0 384.258,0 c 7.455,0 13.554,6.1 13.554,13.554 l 0,0 c 0,7.455 -6.099,13.554 -13.554,13.554 l 0,0 -384.258,0 z"
         id="path2820"
         inkscape:connector-curvature="0" />
    </clipPath>
    <clipPath
       clipPathUnits="userSpaceOnUse"
       id="clipPath2826">
      <path
         d="m 1331.29,2534.97 429.69,0 0,-82.83 -429.69,0 0,82.83 z"
         id="path2828"
         inkscape:connector-curvature="0" />
    </clipPath>
    <clipPath
       clipPathUnits="userSpaceOnUse"
       id="clipPath742">
      <path
         d="m 0,4629.055 3590.051,0 L 3590.051,0 0,0 0,4629.055 Z"
         id="path744"
         inkscape:connector-curvature="0" />
    </clipPath>
    <clipPath
       clipPathUnits="userSpaceOnUse"
       id="clipPath758">
      <path
         d="m 2515.754,2761.197 c -28.052,0 -51.001,-22.95 -51.001,-51.001 l 0,0 0,-180.434 c 0,-28.05 22.949,-51.001 51.001,-51.001 l 0,0 151.359,0 c 28.05,0 51.001,22.951 51.001,51.001 l 0,0 0,180.434 c 0,28.051 -22.951,51.001 -51.001,51.001 l 0,0 -151.359,0 z"
         id="path760"
         inkscape:connector-curvature="0" />
    </clipPath>
    <clipPath
       clipPathUnits="userSpaceOnUse"
       id="clipPath766">
      <path
         d="m 2530.43,2778.56 209.07,0 0,-298.84 -209.07,0 0,298.84 z"
         id="path768"
         inkscape:connector-curvature="0" />
    </clipPath>
    <clipPath
       clipPathUnits="userSpaceOnUse"
       id="clipPath782">
      <path
         d="m 0,4629.055 3590.051,0 L 3590.051,0 0,0 0,4629.055 Z"
         id="path784"
         inkscape:connector-curvature="0" />
    </clipPath>
    <clipPath
       clipPathUnits="userSpaceOnUse"
       id="clipPath794">
      <path
         d="m 2526.1,2675.29 130.66,0 0,-110.62 -130.66,0 0,110.62 z"
         id="path796"
         inkscape:connector-curvature="0" />
    </clipPath>
    <clipPath
       clipPathUnits="userSpaceOnUse"
       id="clipPath818">
      <path
         d="m 2551.86,2777.377 -9.51,0 c -7.841,0 -14.256,-6.415 -14.256,-14.258 l 0,0 0,-43.872 c 0,-7.841 6.415,-14.257 14.256,-14.257 l 0,0 98.165,0 c 7.842,0 14.259,6.416 14.259,14.257 l 0,0 0,43.872 c 0,7.843 -6.417,14.258 -14.259,14.258 l 0,0 -9.509,0 c -8.196,13.249 -22.85,22.078 -39.573,22.078 l 0,0 c -16.721,0 -31.377,-8.829 -39.573,-22.078"
         id="path820"
         inkscape:connector-curvature="0" />
    </clipPath>
    <clipPath
       clipPathUnits="userSpaceOnUse"
       id="clipPath826">
      <path
         d="m 2496.61,2832.63 110.5,0 0,-110.5 -110.5,0 0,110.5 z"
         id="path828"
         inkscape:connector-curvature="0" />
    </clipPath>
    <clipPath
       clipPathUnits="userSpaceOnUse"
       id="clipPath1962">
      <path
         d="m 0,4629.055 3590.051,0 L 3590.051,0 0,0 0,4629.055 Z"
         id="path1964"
         inkscape:connector-curvature="0" />
    </clipPath>
    <clipPath
       clipPathUnits="userSpaceOnUse"
       id="clipPath1978">
      <path
         d="m 3072.7,2710.391 c -30.314,0 -55.113,-24.8 -55.113,-55.112 l 0,0 0,-32.341 c 0,-30.312 24.799,-55.113 55.113,-55.113 l 0,0 172.546,0 c 30.313,0 55.113,24.801 55.113,55.113 l 0,0 0,32.341 c 0,30.312 -24.8,55.112 -55.113,55.112 l 0,0 -172.546,0 z"
         id="path1980"
         inkscape:connector-curvature="0" />
    </clipPath>
    <clipPath
       clipPathUnits="userSpaceOnUse"
       id="clipPath1994">
      <path
         d="m 3053.579,2721.699 c -27.378,0 -49.777,-22.401 -49.777,-49.779 l 0,0 0,-65.624 c 0,-27.378 22.399,-49.777 49.777,-49.777 l 0,0 210.788,0 c 27.378,0 49.779,22.399 49.779,49.777 l 0,0 0,65.624 c 0,27.378 -22.401,49.779 -49.779,49.779 l 0,0 -210.788,0 z"
         id="path1996"
         inkscape:connector-curvature="0" />
    </clipPath>
    <clipPath
       clipPathUnits="userSpaceOnUse"
       id="clipPath2002">
      <path
         d="m 2916.28,2806.2 228.91,0 0,-228.91 -228.91,0 0,228.91 z"
         id="path2004"
         inkscape:connector-curvature="0" />
    </clipPath>
    <clipPath
       clipPathUnits="userSpaceOnUse"
       id="clipPath450">
      <path
         d="m 288.626,2176.9 c 0,-72.3 58.612,-130.912 130.912,-130.912 l 0,0 c 72.301,0 130.912,58.612 130.912,130.912 l 0,0 c 0,72.3 -58.611,130.912 -130.912,130.912 l 0,0 c -72.3,0 -130.912,-58.612 -130.912,-130.912"
         id="path452"
         inkscape:connector-curvature="0" />
    </clipPath>
    <clipPath
       clipPathUnits="userSpaceOnUse"
       id="clipPath458">
      <path
         d="m 220.35,2368.95 263.073,0 0,-263.07 -263.073,0 0,263.07 z"
         id="path460"
         inkscape:connector-curvature="0" />
    </clipPath>
    <clipPath
       clipPathUnits="userSpaceOnUse"
       id="clipPath474">
      <path
         d="m 373.761,2135.28 93.818,0 0,-98.84 -93.818,0 0,98.84 z"
         id="path476"
         inkscape:connector-curvature="0" />
    </clipPath>
    <clipPath
       clipPathUnits="userSpaceOnUse"
       id="clipPath406">
      <path
         d="m 0,4629.055 3590.051,0 L 3590.051,0 0,0 0,4629.055 Z"
         id="path408"
         inkscape:connector-curvature="0" />
    </clipPath>
    <clipPath
       clipPathUnits="userSpaceOnUse"
       id="clipPath418">
      <path
         d="m 398.869,2294.79 25.217,0 0,-16.74 -25.217,0 0,16.74 z"
         id="path420"
         inkscape:connector-curvature="0" />
    </clipPath>
    <clipPath
       clipPathUnits="userSpaceOnUse"
       id="clipPath434">
      <path
         d="m 301.651,2285.18 78.252,0 0,-112.84 -78.252,0 0,112.84 z"
         id="path436"
         inkscape:connector-curvature="0" />
    </clipPath>
    <clipPath
       clipPathUnits="userSpaceOnUse"
       id="clipPath382">
      <path
         d="m 363.893,2070.568 10.547,-45.235 c 2.813,-15.235 9.967,-22.148 22.148,-22.148 l 0,0 43.945,0 c 12.182,0 19.688,8.759 22.149,22.148 l 0,0 10.547,45.235 -109.336,0 z"
         id="path384"
         inkscape:connector-curvature="0" />
    </clipPath>
    <clipPath
       clipPathUnits="userSpaceOnUse"
       id="clipPath390">
      <path
         d="m 360.026,2079.89 117.597,0 0,-47.64 -117.597,0 0,47.64 z"
         id="path392"
         inkscape:connector-curvature="0" />
    </clipPath>
    <clipPath
       clipPathUnits="userSpaceOnUse"
       id="clipPath1038">
      <path
         d="m 958.956,2565.9 15.085,0 0,-33.82 -15.085,0 0,33.82 z"
         id="path1040"
         inkscape:connector-curvature="0" />
    </clipPath>
    <clipPath
       clipPathUnits="userSpaceOnUse"
       id="clipPath1022">
      <path
         d="m 1037.99,2646.67 33.82,0 0,-15.08 -33.82,0 0,15.08 z"
         id="path1024"
         inkscape:connector-curvature="0" />
    </clipPath>
    <clipPath
       clipPathUnits="userSpaceOnUse"
       id="clipPath1006">
      <path
         d="m 858.937,2646.67 33.824,0 0,-15.08 -33.824,0 0,15.08 z"
         id="path1008"
         inkscape:connector-curvature="0" />
    </clipPath>
    <clipPath
       clipPathUnits="userSpaceOnUse"
       id="clipPath990">
      <path
         d="m 958.956,2745.99 15.085,0 0,-33.82 -15.085,0 0,33.82 z"
         id="path992"
         inkscape:connector-curvature="0" />
    </clipPath>
    <clipPath
       clipPathUnits="userSpaceOnUse"
       id="clipPath974">
      <path
         d="m 849.36,2736.1 76.792,0 0,-110.72 -76.792,0 0,110.72 z"
         id="path976"
         inkscape:connector-curvature="0" />
    </clipPath>
    <clipPath
       clipPathUnits="userSpaceOnUse"
       id="clipPath958">
      <path
         d="m 944.764,2745.54 24.747,0 0,-16.43 -24.747,0 0,16.43 z"
         id="path960"
         inkscape:connector-curvature="0" />
    </clipPath>
    <clipPath
       clipPathUnits="userSpaceOnUse"
       id="clipPath874">
      <path
         d="m 809.648,2639.108 c 0,-86.074 69.777,-155.852 155.852,-155.852 l 0,0 c 86.074,0 155.852,69.778 155.852,155.852 l 0,0 c 0,86.075 -69.778,155.852 -155.852,155.852 l 0,0 c -86.075,0 -155.852,-69.777 -155.852,-155.852"
         id="path876"
         inkscape:connector-curvature="0" />
    </clipPath>
    <clipPath
       clipPathUnits="userSpaceOnUse"
       id="clipPath882">
      <path
         d="m 885.074,2737.98 310.146,0 0,-303.19 -310.146,0 0,303.19 z"
         id="path884"
         inkscape:connector-curvature="0" />
    </clipPath>
    <clipPath
       clipPathUnits="userSpaceOnUse"
       id="clipPath898">
      <path
         d="m 0,4629.055 3590.051,0 L 3590.051,0 0,0 0,4629.055 Z"
         id="path900"
         inkscape:connector-curvature="0" />
    </clipPath>
    <clipPath
       clipPathUnits="userSpaceOnUse"
       id="clipPath926">
      <path
         d="m 843.893,2639.108 c 0,-67.162 54.444,-121.607 121.607,-121.607 l 0,0 c 67.162,0 121.607,54.445 121.607,121.607 l 0,0 c 0,67.163 -54.445,121.608 -121.607,121.608 l 0,0 c -67.163,0 -121.607,-54.445 -121.607,-121.608"
         id="path928"
         inkscape:connector-curvature="0" />
    </clipPath>
    <clipPath
       clipPathUnits="userSpaceOnUse"
       id="clipPath934">
      <path
         d="m 751.161,2822.7 215.279,0 0,-215.28 -215.279,0 0,215.28 z"
         id="path936"
         inkscape:connector-curvature="0" />
    </clipPath>
    <clipPath
       clipPathUnits="userSpaceOnUse"
       id="clipPath1190">
      <path
         d="m 1898.967,2558.199 0,-23.168 c 0,-16.568 13.557,-30.126 30.125,-30.126 l 0,0 226.816,0 c 16.569,0 30.125,13.558 30.125,30.126 l 0,0 0,23.168 -287.066,0 z"
         id="path1192"
         inkscape:connector-curvature="0" />
    </clipPath>
    <clipPath
       clipPathUnits="userSpaceOnUse"
       id="clipPath1198">
      <path
         d="m 1898.97,2564.05 304.52,0 0,-70.83 -304.52,0 0,70.83 z"
         id="path1200"
         inkscape:connector-curvature="0" />
    </clipPath>
    <clipPath
       clipPathUnits="userSpaceOnUse"
       id="clipPath1166">
      <path
         d="m 1949.92,2773.97 -47.442,-68.69 281.069,0 -47.746,68.69 -185.881,0 z"
         id="path1168"
         inkscape:connector-curvature="0" />
    </clipPath>
    <clipPath
       clipPathUnits="userSpaceOnUse"
       id="clipPath1174">
      <path
         d="m 1822.04,2917.04 239.92,0 0,-239.92 -239.92,0 0,239.92 z"
         id="path1176"
         inkscape:connector-curvature="0" />
    </clipPath>
    <clipPath
       clipPathUnits="userSpaceOnUse"
       id="clipPath1090">
      <path
         d="m 0,4629.055 3590.051,0 L 3590.051,0 0,0 0,4629.055 Z"
         id="path1092"
         inkscape:connector-curvature="0" />
    </clipPath>
    <clipPath
       clipPathUnits="userSpaceOnUse"
       id="clipPath1134">
      <path
         d="m 1904.51,2664.22 25.46,0 0,-26.6 -25.46,0 0,26.6 z"
         id="path1136"
         inkscape:connector-curvature="0" />
    </clipPath>
    <clipPath
       clipPathUnits="userSpaceOnUse"
       id="clipPath1150">
      <path
         d="m 1904.57,2550.56 37.41,0 0,-39.1 -37.41,0 0,39.1 z"
         id="path1152"
         inkscape:connector-curvature="0" />
    </clipPath>
    <clipPath
       clipPathUnits="userSpaceOnUse"
       id="clipPath1066">
      <path
         d="m 1955.566,2705.28 c -28.05,0 -50.999,-22.95 -50.999,-50.999 l 0,0 0,-99.035 c 0,-28.049 22.949,-50.999 50.999,-50.999 l 0,0 173.65,0 c 28.05,0 51,22.95 51,50.999 l 0,0 0,99.035 c 0,28.049 -22.95,50.999 -51,50.999 l 0,0 -173.65,0 z"
         id="path1068"
         inkscape:connector-curvature="0" />
    </clipPath>
    <clipPath
       clipPathUnits="userSpaceOnUse"
       id="clipPath1074">
      <path
         d="m 1902.48,2672.8 294.75,0 0,-108.2 -294.75,0 0,108.2 z"
         id="path1076"
         inkscape:connector-curvature="0" />
    </clipPath>
    <clipPath
       clipPathUnits="userSpaceOnUse"
       id="clipPath2138">
      <path
         d="m 810,2171.991 c 0,-35.206 13.418,-65.093 38.692,-86.612 l 0,0 0,-54.854 54.522,31.569 c 7.516,-1.228 24.608,-2.55 32.534,-2.55 l 0,0 c 69.447,0 116.073,51.68 116.073,112.447 l 0,0 c 0,60.766 -58.258,110.029 -116.073,110.029 l 0,0 C 866.205,2282.02 810,2232.757 810,2171.991"
         id="path2140"
         inkscape:connector-curvature="0" />
    </clipPath>
    <clipPath
       clipPathUnits="userSpaceOnUse"
       id="clipPath2146">
      <path
         d="m 785.794,2363.06 231.186,0 0,-231.18 -231.186,0 0,231.18 z"
         id="path2148"
         inkscape:connector-curvature="0" />
    </clipPath>
    <clipPath
       clipPathUnits="userSpaceOnUse"
       id="clipPath2162">
      <path
         d="m 845.903,2263.32 231.857,0 0,-265.76 -231.857,0 0,265.76 z"
         id="path2164"
         inkscape:connector-curvature="0" />
    </clipPath>
    <clipPath
       clipPathUnits="userSpaceOnUse"
       id="clipPath2114">
      <path
         d="m 0,4629.055 3590.051,0 L 3590.051,0 0,0 0,4629.055 Z"
         id="path2116"
         inkscape:connector-curvature="0" />
    </clipPath>
    <clipPath
       clipPathUnits="userSpaceOnUse"
       id="clipPath2090">
      <path
         d="m 904.782,2132.281 c 0,-54.333 41.689,-100.541 103.785,-100.541 l 0,0 c 7.085,0 22.368,1.183 29.087,2.281 l 0,0 48.751,-28.227 0,49.046 c 22.597,19.24 34.595,45.963 34.595,77.441 l 0,0 c 0,54.333 -50.253,98.379 -112.433,98.379 l 0,0 c -51.695,0 -103.785,-44.046 -103.785,-98.379"
         id="path2092"
         inkscape:connector-curvature="0" />
    </clipPath>
    <clipPath
       clipPathUnits="userSpaceOnUse"
       id="clipPath2098">
      <path
         d="m 968.319,2289.07 206.711,0 0,-206.71 -206.711,0 0,206.71 z"
         id="path2100"
         inkscape:connector-curvature="0" />
    </clipPath>
  </defs>
  <sodipodi:namedview
     id="base"
     pagecolor="#ffffff"
     bordercolor="#666666"
     borderopacity="1.0"
     inkscape:pageopacity="0.0"
     inkscape:pageshadow="2"
     inkscape:zoom="0.35"
     inkscape:cx="700.94875"
     inkscape:cy="748.57143"
     inkscape:document-units="px"
     inkscape:current-layer="layer1"
     showgrid="false"
     inkscape:window-width="1855"
     inkscape:window-height="1056"
     inkscape:window-x="65"
     inkscape:window-y="24"
     inkscape:window-maximized="1" />
  <metadata
     id="metadata12040">
    <rdf:RDF>
      <cc:Work
         rdf:about="">
        <dc:format>image/svg+xml</dc:format>
        <dc:type
           rdf:resource="http://purl.org/dc/dcmitype/StillImage" />
        <dc:title></dc:title>
      </cc:Work>
    </rdf:RDF>
  </metadata>
  <g
     inkscape:label="Capa 1"
     inkscape:groupmode="layer"
     id="layer1"
     transform="translate(0,761.81102)">
    <g
       id="g2070"
       transform="matrix(5.5171979,0,0,-5.5171979,1148.3424,769.13601)">
      <path
         d="m 0,0 c 7.086,0 22.369,1.183 29.088,2.28 l 48.75,-28.226 0,49.046 c 22.598,19.24 34.595,45.963 34.595,77.441 0,54.333 -50.253,98.379 -112.433,98.379 -51.694,0 -103.785,-44.046 -103.785,-98.379 C -103.785,46.208 -62.095,0 0,0"
         style="fill:#2075bc;fill-opacity:1;fill-rule:evenodd;stroke:none"
         id="path2072"
         inkscape:connector-curvature="0" />
    </g>
    <g
       id="g2074"
       transform="matrix(5.5171979,0,0,-5.5171979,1386.9263,220.3955)">
      <path
         d="m 0,0 c 0,-7.165 5.808,-12.973 12.973,-12.973 7.165,0 12.973,5.808 12.973,12.973 0,7.165 -5.808,12.974 -12.973,12.974 C 5.808,12.974 0,7.165 0,0"
         style="fill:#ffffff;fill-opacity:1;fill-rule:nonzero;stroke:none"
         id="path2076"
         inkscape:connector-curvature="0" />
    </g>
    <g
       id="g2078"
       transform="matrix(5.5171979,0,0,-5.5171979,1101.8125,220.3955)">
      <path
         d="m 0,0 c 0,-7.165 5.808,-12.973 12.973,-12.973 7.165,0 12.973,5.808 12.973,12.973 0,7.165 -5.808,12.974 -12.973,12.974 C 5.808,12.974 0,7.165 0,0"
         style="fill:#ffffff;fill-opacity:1;fill-rule:nonzero;stroke:none"
         id="path2080"
         inkscape:connector-curvature="0" />
    </g>
    <g
       id="g2082"
       transform="matrix(5.5171979,0,0,-5.5171979,816.69911,220.3955)">
      <path
         d="m 0,0 c 0,-7.165 5.809,-12.973 12.973,-12.973 7.165,0 12.973,5.808 12.973,12.973 0,7.165 -5.808,12.974 -12.973,12.974 C 5.809,12.974 0,7.165 0,0"
         style="fill:#ffffff;fill-opacity:1;fill-rule:nonzero;stroke:none"
         id="path2084"
         inkscape:connector-curvature="0" />
    </g>
    <g
       transform="matrix(5.5171979,0,0,-5.5171979,-4416.1181,11978.648)"
       id="g2086">
      <g
         id="g2088"
         clip-path="url(#clipPath2090)">
        <g
           id="g2094">
          <g
             id="g2096" />
          <g
             id="g2102">
            <g
               clip-path="url(#clipPath2098)"
               id="g2104"
               style="opacity:0.17999303">
              <g
                 transform="translate(968.3193,2185.7158)"
                 id="g2106">
                <path
                   d="m 0,0 c 0,-57.081 46.273,-103.354 103.354,-103.354 57.081,0 103.354,46.273 103.354,103.354 0,57.081 -46.273,103.354 -103.354,103.354 C 46.273,103.354 0,57.081 0,0"
                   style="fill:#ffffff;fill-opacity:1;fill-rule:evenodd;stroke:none"
                   id="path2108"
                   inkscape:connector-curvature="0" />
              </g>
            </g>
          </g>
        </g>
      </g>
    </g>
    <g
       transform="matrix(5.5171979,0,0,-5.5171979,-4416.1181,11978.648)"
       id="g2110">
      <g
         id="g2112"
         clip-path="url(#clipPath2114)">
        <g
           id="g2118"
           transform="translate(935.7476,2059.5439)">
          <path
             d="m 0,0 c -7.925,0 -25.018,1.322 -32.533,2.551 l -54.523,-31.57 0,54.854 c -25.273,21.519 -38.691,51.406 -38.691,86.612 0,60.767 56.204,110.029 125.747,110.029 57.815,0 116.074,-49.262 116.074,-110.029 C 116.074,51.68 69.448,0 0,0"
             style="fill:#29aae1;fill-opacity:1;fill-rule:evenodd;stroke:none"
             id="path2120"
             inkscape:connector-curvature="0" />
        </g>
        <g
           id="g2122"
           transform="translate(887.3833,2170.7813)">
          <path
             d="m 0,0 c 0,-8.013 -6.496,-14.509 -14.509,-14.509 -8.013,0 -14.51,6.496 -14.51,14.509 0,8.014 6.497,14.51 14.51,14.51 C -6.496,14.51 0,8.014 0,0"
             style="fill:#ffffff;fill-opacity:1;fill-rule:nonzero;stroke:none"
             id="path2124"
             inkscape:connector-curvature="0" />
        </g>
        <g
           id="g2126"
           transform="translate(945.1792,2170.7813)">
          <path
             d="m 0,0 c 0,-8.013 -6.496,-14.509 -14.509,-14.509 -8.013,0 -14.509,6.496 -14.509,14.509 0,8.014 6.496,14.51 14.509,14.51 C -6.496,14.51 0,8.014 0,0"
             style="fill:#ffffff;fill-opacity:1;fill-rule:nonzero;stroke:none"
             id="path2128"
             inkscape:connector-curvature="0" />
        </g>
        <g
           id="g2130"
           transform="translate(1002.9761,2170.7813)">
          <path
             d="m 0,0 c 0,-8.013 -6.496,-14.509 -14.51,-14.509 -8.013,0 -14.509,6.496 -14.509,14.509 0,8.014 6.496,14.51 14.509,14.51 C -6.496,14.51 0,8.014 0,0"
             style="fill:#ffffff;fill-opacity:1;fill-rule:nonzero;stroke:none"
             id="path2132"
             inkscape:connector-curvature="0" />
        </g>
      </g>
    </g>
    <g
       transform="matrix(5.5171979,0,0,-5.5171979,-4416.1181,11978.648)"
       id="g2134">
      <g
         id="g2136"
         clip-path="url(#clipPath2138)">
        <g
           id="g2142">
          <g
             id="g2144" />
          <g
             id="g2150">
            <g
               clip-path="url(#clipPath2146)"
               id="g2152"
               style="opacity:0.17999303">
              <g
                 transform="translate(1016.9795,2247.4707)"
                 id="g2154">
                <path
                   d="m 0,0 c 0,-63.841 -51.752,-115.593 -115.593,-115.593 -63.84,0 -115.593,51.752 -115.593,115.593 0,63.84 51.753,115.593 115.593,115.593 C -51.752,115.593 0,63.84 0,0"
                   style="fill:#ffffff;fill-opacity:1;fill-rule:evenodd;stroke:none"
                   id="path2156"
                   inkscape:connector-curvature="0" />
              </g>
            </g>
          </g>
        </g>
        <g
           id="g2158">
          <g
             id="g2160" />
          <g
             id="g2166">
            <g
               clip-path="url(#clipPath2162)"
               id="g2168"
               style="opacity:0.30999804">
              <g
                 transform="translate(845.9028,2019.4336)"
                 id="g2170">
                <path
                   d="m 0,0 26.971,64.118 c 0,0 11.62,31.501 58.037,21.362 50.512,-11.034 151.666,27.795 95.168,158.408 l 51.677,-17.338 0,-240.19 C 231.853,-13.64 31.278,-39.301 0,0"
                   style="fill:#2075bc;fill-opacity:1;fill-rule:evenodd;stroke:none"
                   id="path2172"
                   inkscape:connector-curvature="0" />
              </g>
            </g>
          </g>
        </g>
      </g>
    </g>
  </g>
</svg>
